<?xml version="1.0" standalone="no"?>
<!DOCTYPE svg PUBLIC "-//W3C//DTD SVG 20010904//EN"
 "http://www.w3.org/TR/2001/REC-SVG-20010904/DTD/svg10.dtd">
<svg version="1.0" xmlns="http://www.w3.org/2000/svg"
 width="800.000000pt" height="800.000000pt" viewBox="0 0 800.000000 800.000000"
 preserveAspectRatio="xMidYMid meet">
<metadata>
Created by potrace 1.14, written by Peter Selinger 2001-2017
</metadata>
<g transform="translate(0.000000,800.000000) scale(0.100000,-0.100000)"
fill="#000000" stroke="none">
<path d="M3785 7859 c-345 -20 -668 -86 -975 -201 -957 -357 -1677 -1177
-2015 -2293 -343 -1132 -243 -2430 265 -3435 525 -1037 1383 -1659 2495 -1807
164 -21 684 -25 845 -5 607 74 1107 270 1554 606 1118 842 1665 2481 1376
4126 -32 183 -96 429 -165 635 -410 1236 -1304 2080 -2447 2309 -177 35 -328
54 -528 66 -192 11 -202 11 -405 -1z m505 -914 c649 -92 1188 -502 1419 -1080
44 -112 86 -264 101 -372 43 -307 49 -2375 9 -2848 -30 -362 -167 -676 -417
-958 -243 -274 -547 -471 -862 -556 -327 -89 -731 -78 -1062 29 -127 41 -333
146 -448 227 -202 144 -465 445 -579 663 -68 130 -99 244 -121 450 -22 195
-28 828 -21 1981 l7 1185 83 175 c45 95 106 215 136 265 164 276 417 516 694
658 188 96 359 151 564 180 125 19 369 19 497 1z"/>
<path d="M3797 6330 c-140 -25 -268 -81 -377 -165 -73 -56 -248 -240 -305
-320 -87 -121 -122 -235 -146 -470 -15 -155 -24 -2040 -11 -2390 10 -250 15
-289 36 -283 19 6 1716 3422 1716 3456 0 5 -53 36 -118 70 -174 91 -234 103
-517 107 -126 2 -252 0 -278 -5z"/>
<path d="M5102 5406 c-48 -55 -148 -244 -525 -1001 -595 -1191 -1005 -2038
-1158 -2390 -56 -130 -61 -119 74 -193 107 -59 231 -104 337 -123 97 -18 353
-17 450 0 213 39 397 138 560 301 111 111 175 206 267 396 l75 156 5 1241 c6
1420 -1 1647 -46 1647 -5 0 -22 -15 -39 -34z"/>
</g>
</svg>
